<svg xmlns="http://www.w3.org/2000/svg" viewBox="0 0 120 40"><path d="m8.524 28.694 4.163-6.101c-.638.38-1.373.57-2.117.545-3.188 0-5.57-3.045-5.57-6.057 0-1.556.662-3.133 1.71-4.241A5.792 5.792 0 0 1 11.05 11c3.308 0 5.955 2.806 5.955 6.031 0 2.309-1.047 3.673-2.26 5.49l-4.175 6.162H8.53l-.006.011Zm2.498-7.302c2.382.115 4.213-1.888 4.213-4.219 0-2.38-1.737-4.502-4.213-4.502-2.383.045-4.284 1.98-4.263 4.339-.022 2.352 2.052 4.497 4.263 4.382Zm11.735-8.536h-4.042v-1.582h9.805v1.582h-3.998v15.827h-1.765V12.856Zm24.264 7.068c0 5.064-4.218 9.07-9.314 9.07-4.924 0-9.28-3.93-9.28-8.928a9.068 9.068 0 0 1 2.737-6.436A9.26 9.26 0 0 1 37.702 11c4.98 0 9.308 3.93 9.308 8.93l.011-.006Zm-1.764 0c0-4.028-3.502-7.259-7.522-7.259-4.191 0-7.55 3.302-7.55 7.4 0 4.028 3.546 7.26 7.55 7.26 4.136 0 7.522-3.275 7.522-7.401Zm6.562-8.64h7.952v1.578h-6.518l-.882 4.802c.91-.513 1.93-.818 2.977-.818 3.337 0 5.885 2.827 5.885 6.052 0 3.275-2.526 6.102-5.901 6.102-3.336 0-5.813-2.565-6.05-5.774h1.765c.138 2.194 1.853 4.098 4.186 4.098 2.448 0 4.235-2.019 4.235-4.377 0-2.335-1.765-4.431-4.213-4.431-1.429 0-2.736.775-3.618 1.839l-1.406-.497 1.6-8.573h-.012Zm-14.1 2.937v5.97-5.97Zm0 6.614a.65.65 0 0 0 .655-.644v-5.97a.65.65 0 0 0-.653-.647.65.65 0 0 0-.654.647v5.97c0 .36.293.644.651.644Zm0-.644h-4.164 4.163Zm0 .644c.359 0 .65-.288.65-.644a.647.647 0 0 0-.65-.644h-4.164a.648.648 0 0 0-.651.644c0 .356.291.644.65.644h4.164Z" fill="#004A7C"/><path d="M64.183 11.274h2.719l6.43 14.828 6.402-14.823h2.713v17.41h-1.764V13.217L74.065 28.7h-1.5l-6.617-15.483V28.7h-1.765V11.274Zm34.836 17.42H97.33v-2.429h-.05c-.951 1.818-2.948 2.735-5 2.735-1.952 0-4.07-.846-5.735-2.729-.48-.524-1.285-2.15-1.285-4.104 0-1.768.733-3.346 1.875-4.53a6.824 6.824 0 0 1 5.1-2.117c2.047 0 4.12.895 5.047 2.734h.05v-2.456h1.687v12.896Zm-12-6.385c0 2.827 2.476 5.02 5.26 5.02 2.77-.049 5.002-2.258 5.052-4.998a4.993 4.993 0 0 0-1.452-3.633 5.1 5.1 0 0 0-3.643-1.503 5.212 5.212 0 0 0-3.681 1.485 5.104 5.104 0 0 0-1.536 3.629Zm27.959 2.614c-1.094 2.496-3.592 4.102-6.342 4.077-3.877 0-7.114-2.827-7.114-6.768 0-3.814 3.287-6.712 7.048-6.712 2.757 0 5.426 1.604 6.43 4.196h-1.98a5.233 5.233 0 0 0-4.428-2.52c-2.879 0-5.31 2.117-5.31 5.02 0 2.849 2.26 5.108 5.167 5.108 2.024 0 3.43-.818 4.577-2.401h1.952Z" fill="#0095FF"/></svg>