<svg viewBox="0 0 30 30" xmlns="http://www.w3.org/2000/svg" xmlns:xlink="http://www.w3.org/1999/xlink"><defs><linearGradient x1="50%" y1="0%" x2="50%" y2="99.405%" id="b"><stop stop-color="#00CE33" offset="0%"/><stop stop-color="#00A128" offset="100%"/></linearGradient><path d="M8.647.001 21.027 0c.222 0 .435.002.638.005l.583.015.271.01.506.03c.241.017.465.038.675.063l.4.053.365.063c.524.1.946.234 1.332.397l.253.113.247.122.122.064a6.36 6.36 0 0 1 2.646 2.646l.126.245.06.124.113.253c.163.386.296.808.397 1.332l.063.365.053.4c.017.14.031.286.044.44l.035.482c.01.169.018.345.024.53l.015.583.005.639v12.052c0 .223-.002.436-.005.64l-.015.582-.01.271-.03.506a14.11 14.11 0 0 1-.063.675l-.053.4-.063.365a6.528 6.528 0 0 1-.397 1.332l-.113.253-.122.247-.064.122a6.36 6.36 0 0 1-2.646 2.646l-.245.126-.124.06-.253.113a6.528 6.528 0 0 1-1.332.397l-.365.063-.4.053c-.14.017-.286.031-.44.044l-.482.035c-.169.01-.345.018-.53.024l-.583.015-.639.005H8.974c-.223 0-.436-.002-.64-.005l-.582-.015a24.952 24.952 0 0 1-.271-.01l-.506-.03a15.183 15.183 0 0 1-.675-.063l-.4-.053-.365-.063a6.528 6.528 0 0 1-1.332-.397l-.253-.113-.247-.122a6.36 6.36 0 0 1-2.768-2.71l-.126-.245a7.406 7.406 0 0 1-.06-.124l-.113-.253a6.528 6.528 0 0 1-.397-1.332L.176 24.1l-.053-.4c-.017-.14-.031-.286-.044-.44l-.035-.482a19.87 19.87 0 0 1-.024-.53l-.015-.583L0 21.026V8.974c0-.223.002-.436.005-.64l.015-.582.01-.271.03-.506c.017-.241.038-.465.063-.675l.053-.4.063-.365c.1-.524.234-.946.397-1.332l.113-.253.122-.247.064-.122A6.36 6.36 0 0 1 3.581.935l.245-.126.124-.06.253-.113A6.528 6.528 0 0 1 5.535.239L5.9.176l.4-.053c.14-.017.286-.031.44-.044l.482-.035c.169-.01.345-.018.53-.024l.583-.015.312-.004Z" id="a"/></defs><g fill="none" fill-rule="evenodd"><mask id="c" fill="#fff"><use xlink:href="#a"/></mask><path fill="url(#b)" mask="url(#c)" d="M0 0h30v30H0z"/><g mask="url(#c)"><path d="M15 5.675c.235 0 .478.052.696.121 1.271.424 5.375 1.84 6.642 2.345.358.146.647.262.82.486.129.164.167.388.167.698v7.953c0 1.588-.407 2.71-1.425 3.757-1.248 1.284-3.327 2.458-6.494 4.162-3.983-1.715-6.061-2.888-7.309-4.172-1.014-1.044-1.422-2.162-1.422-3.747V9.325c0-.31.04-.536.17-.701.174-.224.461-.34.809-.48 1.265-.493 5.359-1.986 6.626-2.337.238-.062.482-.132.72-.132Z" stroke="#FFF" stroke-width="1.35"/><path d="M13.905 18.65c.344 0 .636-.163.845-.47l4.764-5.48c.126-.194.25-.42.25-.654 0-.45-.416-.746-.844-.746-.27 0-.532.153-.73.46l-4.326 4.928-2.054-2.605c-.25-.327-.48-.42-.761-.42a.804.804 0 0 0-.814.818c0 .215.094.44.24.634l2.544 3.065c.26.337.542.47.886.47Z" fill="#FFF"/></g></g></svg>