<svg xmlns="http://www.w3.org/2000/svg" viewBox="0 0 120 40"><path d="M71.315 18.276c-2.46 0-4.27 1.867-4.27 4.362C67.044 25.02 68.55 27 71.39 27c1.372 0 2.669-.552 3.394-1.39.133-.153.228-.324.228-.514 0-.458-.343-.744-.744-.744-.228 0-.438.134-.59.286-.63.59-1.221.933-2.212.933-1.582 0-2.478-.99-2.574-2.305h5.7c.515 0 .686-.304.686-.609 0-2.438-1.563-4.38-3.964-4.38m2.306 3.542h-4.69c.172-1.181 1.068-2.114 2.384-2.114 1.296 0 2.153.971 2.306 2.114m-16.318.438v3.772c0 .495.4.894.896.894s.896-.4.896-.894v-3.981c0-1.2.934-2.134 2.193-2.134 1.258 0 2.21.933 2.21 2.134v3.98c0 .495.4.895.897.895.496 0 .896-.4.896-.895v-3.771c0-2.228-1.697-3.98-4.003-3.98-2.307 0-3.985 1.752-3.985 3.98m-1.754.381c0-2.4-1.716-4.362-4.365-4.362-2.65 0-4.366 1.962-4.366 4.362 0 2.4 1.716 4.362 4.366 4.362 2.65 0 4.365-1.962 4.365-4.362m-1.792 0c0 1.543-.896 2.838-2.573 2.838-1.678 0-2.574-1.295-2.574-2.838 0-1.543.896-2.838 2.574-2.838 1.677 0 2.573 1.295 2.573 2.838m-8.693 3.391v-3.886c0-2.248-1.258-3.867-3.45-3.867-1.26 0-2.212.572-2.746 1.6v-5.028c0-.629-.4-.915-.896-.915-.515 0-.896.343-.896.915v11.18a.87.87 0 0 0 .896.895c.515 0 .896-.4.896-.894v-3.791c0-1.295.82-2.343 2.25-2.343 1.43 0 2.154.99 2.154 2.324v3.81c0 .495.362.895.896.895.572 0 .896-.42.896-.895M29.62 25.99v-4.418h1.35c2.897 0 4.326-1.524 4.326-3.715 0-2.19-1.43-3.771-4.327-3.771h-2.245c-.572 0-.935.38-.935.933V25.99c0 .514.382.933.935.933.534 0 .896-.418.896-.933m1.712-10.228c1.41 0 2.135.972 2.135 2.095 0 1.124-.725 2.038-2.135 2.038H29.62v-4.133h1.712Zm-7.602.248c0 .57.477 1.047 1.05 1.047.571 0 1.048-.476 1.048-1.048 0-.57-.477-1.047-1.049-1.047s-1.048.476-1.048 1.047m1.944 10.02v-6.781a.883.883 0 0 0-.896-.896c-.514 0-.896.4-.896.896v6.78a.87.87 0 0 0 .896.895.87.87 0 0 0 .896-.894M115 22.638c0-2.572-1.621-4.362-4.366-4.362-2.688 0-4.404 1.981-4.404 4.362 0 2.42 1.544 4.362 4.214 4.362 1.238 0 2.25-.59 2.783-1.39v.419c0 .495.343.894.877.894.553 0 .896-.4.896-.894v-3.39Zm-1.793 0c0 1.486-1.01 2.838-2.592 2.838-1.696 0-2.592-1.2-2.592-2.838 0-1.562 1.067-2.838 2.592-2.838 1.525 0 2.592 1.085 2.592 2.838m-8.764 3.391v-6.781a.882.882 0 0 0-.896-.896c-.515 0-.896.4-.896.896v6.78a.87.87 0 0 0 .896.895.87.87 0 0 0 .896-.894m-1.945-10.02c0 .572.477 1.048 1.049 1.048.571 0 1.048-.476 1.048-1.048 0-.57-.477-1.047-1.048-1.047-.572 0-1.049.476-1.049 1.047m-1.948 9.95V14.835c0-.552-.362-.933-.896-.933-.571 0-.934.419-.934.933V25.96c0 .514.382.933.934.933.534 0 .896-.42.896-.933m-3.86-3.322c0-2.572-1.62-4.362-4.365-4.362-2.688 0-4.404 1.981-4.404 4.362 0 2.42 1.544 4.362 4.214 4.362 1.238 0 2.249-.59 2.783-1.39v.419c0 .495.343.894.877.894.553 0 .896-.4.896-.894v-3.39Zm-1.791 0c0 1.486-1.01 2.838-2.593 2.838-1.696 0-2.592-1.2-2.592-2.838 0-1.562 1.068-2.838 2.592-2.838 1.525 0 2.593 1.085 2.593 2.838M84.89 26.029V19.99h1.639c.42 0 .744-.323.744-.742a.732.732 0 0 0-.744-.743h-1.64v-2.496a.871.871 0 0 0-.895-.895c-.534 0-.896.4-.896.895v2.496h-1.45a.732.732 0 0 0-.742.743c0 .419.324.742.743.742h1.449v6.039c0 .495.362.894.896.894s.896-.4.896-.894m-5.715-.07V14.835c0-.552-.362-.933-.896-.933-.572 0-.934.419-.934.933V25.96c0 .514.381.933.934.933.534 0 .896-.42.896-.933m-60.47-12.957c-.5-.036-2.026.252-3.744 1.032H6.67c-.922 0-1.669.747-1.669 1.668v9.522c0 .92.747 1.667 1.669 1.667h9.53c.921 0 1.668-.746 1.668-1.667v-8.778c.65-1.599.879-2.975.838-3.444Zm-3.802 7.123c-2.413 2.394-5.709 3.292-6.434 3.276-.029-.725.815-4.033 3.17-6.482 2.412-2.394 5.709-3.292 6.434-3.275.029.724-.815 4.032-3.17 6.481Z"/></svg>