<svg xmlns="http://www.w3.org/2000/svg" xmlns:xlink="http://www.w3.org/1999/xlink" viewBox="0 0 120 40"><defs><filter x="0%" y="0%" width="100%" height="100%" filterUnits="objectBoundingBox" id="b"><feOffset in="SourceAlpha" result="shadowOffsetOuter1"/><feColorMatrix values="0 0 0 0 0 0 0 0 0 0.352941176 0 0 0 0 0.658823529 0 0 0 1 0" in="shadowOffsetOuter1"/></filter><filter x="0%" y="0%" width="100%" height="100%" filterUnits="objectBoundingBox" id="e"><feOffset in="SourceAlpha" result="shadowOffsetOuter1"/><feColorMatrix values="0 0 0 0 0 0 0 0 0 0.352941176 0 0 0 0 0.658823529 0 0 0 1 0" in="shadowOffsetOuter1"/></filter><path d="M4.872 5.963h5.207c.434 0 .786.352.786.785v.213c0 .316.256.573.573.573h.314c.316 0 .573.256.573.573v7.646a.862.862 0 1 1-1.724 0V8.271a.573.573 0 0 0-.572-.573h-.57a.573.573 0 0 0-.574.573v7.484a.86.86 0 0 1-1.72 0V8.27a.573.573 0 0 0-.572-.573H6.02a.573.573 0 0 0-.573.573v7.483a.86.86 0 0 1-1.72 0V7.11c0-.633.512-1.146 1.145-1.146Z" id="c"/><path d="M16.337 5.963h5.207c.434 0 .786.352.786.785v.213c0 .316.256.573.573.573h.314c.316 0 .573.256.573.573v7.646a.862.862 0 0 1-1.724 0V8.271a.573.573 0 0 0-.573-.573h-.57a.573.573 0 0 0-.573.573v7.484a.86.86 0 1 1-1.72 0V8.27a.573.573 0 0 0-.573-.573h-.572a.573.573 0 0 0-.573.573v7.483a.86.86 0 0 1-1.721 0V7.11c0-.633.513-1.146 1.146-1.146Z" id="f"/><radialGradient cx="95.555%" cy="10.368%" fx="95.555%" fy="10.368%" r="147.293%" gradientTransform="matrix(-.61172 .57792 -.52931 -.99717 1.595 -.345)" id="a"><stop stop-color="#00EDDA" offset="0%"/><stop stop-color="#006DE9" offset="100%"/></radialGradient><linearGradient x1="50%" y1="0%" x2="50%" y2="100%" id="d"><stop stop-color="#FFF" offset="0%"/><stop stop-color="#A9DFF4" offset="100%"/></linearGradient></defs><text font-family="HelveticaNeue-Medium, Helvetica Neue" font-size="12.604" font-weight="400" letter-spacing="-.229" transform="translate(5 9)">
                <tspan x="30.955" y="15.553">MacMagazine</tspan>
            </text><path d="M4.583 2.292h7.38C14.58 2.292 15.19 0 17.744 0h5.187a4.583 4.583 0 0 1 4.584 4.583v11.459a4.583 4.583 0 0 1-4.584 4.583H4.583A4.583 4.583 0 0 1 0 16.042V6.875a4.583 4.583 0 0 1 4.583-4.583Z" fill="url(#a)" transform="translate(5 9)"/><g transform="translate(5 9)"><use filter="url(#b)" xlink:href="#c"/><use fill="url(#d)" xlink:href="#c"/></g><g transform="translate(5 9)"><use filter="url(#e)" xlink:href="#f"/><use fill="url(#d)" xlink:href="#f"/></g></svg>