<svg viewBox="0 0 30 30" xmlns="http://www.w3.org/2000/svg" xmlns:xlink="http://www.w3.org/1999/xlink"><defs><linearGradient x1="50%" y1="0%" x2="50%" y2="100%" id="b"><stop stop-color="#FF4D34" offset="0%"/><stop stop-color="#FF1D0F" offset="100%"/></linearGradient><linearGradient x1="50%" y1="0%" x2="50%" y2="100%" id="f"><stop stop-color="#FF4D34" offset="0%"/><stop stop-color="#FF1D0F" offset="100%"/></linearGradient><path d="M8.647.001 21.027 0c.222 0 .435.002.638.005l.583.015.271.01.506.03c.241.017.465.038.675.063l.4.053.365.063c.524.1.946.234 1.332.397l.253.113.247.122.122.064a6.36 6.36 0 0 1 2.646 2.646l.126.245.06.124.113.253c.163.386.296.808.397 1.332l.063.365.053.4c.017.14.031.286.044.44l.035.482c.01.169.018.345.024.53l.015.583.005.639v12.052c0 .223-.002.436-.005.64l-.015.582-.01.271-.03.506a14.11 14.11 0 0 1-.063.675l-.053.4-.063.365a6.528 6.528 0 0 1-.397 1.332l-.113.253-.122.247-.064.122a6.36 6.36 0 0 1-2.646 2.646l-.245.126-.124.06-.253.113a6.528 6.528 0 0 1-1.332.397l-.365.063-.4.053c-.14.017-.286.031-.44.044l-.482.035c-.169.01-.345.018-.53.024l-.583.015-.639.005H8.974c-.223 0-.436-.002-.64-.005l-.582-.015a24.952 24.952 0 0 1-.271-.01l-.506-.03a15.183 15.183 0 0 1-.675-.063l-.4-.053-.365-.063a6.528 6.528 0 0 1-1.332-.397l-.253-.113-.247-.122a6.36 6.36 0 0 1-2.768-2.71l-.126-.245a7.406 7.406 0 0 1-.06-.124l-.113-.253a6.528 6.528 0 0 1-.397-1.332L.176 24.1l-.053-.4c-.017-.14-.031-.286-.044-.44l-.035-.482a19.87 19.87 0 0 1-.024-.53l-.015-.583L0 21.026V8.974c0-.223.002-.436.005-.64l.015-.582.01-.271.03-.506c.017-.241.038-.465.063-.675l.053-.4.063-.365c.1-.524.234-.946.397-1.332l.113-.253.122-.247.064-.122A6.36 6.36 0 0 1 3.581.935l.245-.126.124-.06.253-.113A6.528 6.528 0 0 1 5.535.239L5.9.176l.4-.053c.14-.017.286-.031.44-.044l.482-.035c.169-.01.345-.018.53-.024l.583-.015.312-.004Z" id="a"/><path d="M7.36 22c3.654 0 6.236-1.92 7.62-5.71l1.833-5.002a2.9 2.9 0 0 0 .187-.98c0-1.071-.833-1.82-1.895-1.82-.718 0-1.363.415-1.717 1.213l-.677 1.617c-.02.04-.052.071-.094.071-.052 0-.073-.04-.073-.09V3.192c0-1.182-.76-1.93-1.926-1.93a1.63 1.63 0 0 0-1.103.415C9.38.637 8.693 0 7.662 0c-1.01 0-1.718.657-1.874 1.657a1.466 1.466 0 0 0-1.01-.394c-1.082 0-1.8.738-1.8 1.86v1.121c-.282-.283-.709-.434-1.146-.434C.75 3.81 0 4.578 0 5.72v8.68C0 19.13 2.957 22 7.36 22Z" id="e"/><filter x="-8.8%" y="-6.8%" width="117.6%" height="113.6%" filterUnits="objectBoundingBox" id="d"><feOffset in="SourceAlpha" result="shadowOffsetOuter1"/><feGaussianBlur stdDeviation=".5" in="shadowOffsetOuter1" result="shadowBlurOuter1"/><feColorMatrix values="0 0 0 0 0.125679348 0 0 0 0 0.064848915 0 0 0 0 0.064848915 0 0 0 0.5 0" in="shadowBlurOuter1"/></filter></defs><g fill="none" fill-rule="evenodd"><mask id="c" fill="#fff"><use xlink:href="#a"/></mask><path fill="url(#b)" mask="url(#c)" d="M0 0h30v30H0z"/><g mask="url(#c)"><use fill="#000" filter="url(#d)" xlink:href="#e" transform="translate(6.5 4)"/><path d="M7.308 20.605c-3.685 0-5.934-2.304-5.934-6.366V5.86c0-.434.281-.727.718-.727.427 0 .74.293.74.727v5.164c0 .374.312.627.645.627.354 0 .677-.253.677-.627v-7.72c0-.435.28-.738.708-.738.437 0 .739.303.739.738v7.205c0 .374.312.626.656.626.354 0 .666-.252.666-.626V2.05c0-.434.302-.747.739-.747.416 0 .718.313.718.747v8.459c0 .354.292.626.656.626.354 0 .666-.272.666-.626V3.305c0-.435.302-.738.73-.738.426 0 .728.303.728.738v9.944c0 .505.302.798.739.798.375 0 .687-.162.926-.667l1.5-3.244c.197-.435.583-.586.947-.455.406.142.53.516.343 1.01l-1.905 5.165c-1.27 3.446-3.498 4.75-6.402 4.75Z" fill="url(#f)" transform="translate(6.5 4)"/><path d="M13.86 26c3.654 0 6.236-1.92 7.62-5.71l1.833-5.002a2.9 2.9 0 0 0 .187-.98c0-1.071-.833-1.82-1.895-1.82-.718 0-1.363.415-1.717 1.213l-.677 1.617c-.02.04-.052.071-.094.071-.052 0-.073-.04-.073-.09V7.192c0-1.182-.76-1.93-1.926-1.93a1.63 1.63 0 0 0-1.103.415C15.88 4.637 15.193 4 14.162 4c-1.01 0-1.718.657-1.874 1.657a1.466 1.466 0 0 0-1.01-.394c-1.082 0-1.8.738-1.8 1.86v1.121c-.282-.283-.709-.434-1.146-.434-1.082 0-1.832.768-1.832 1.91v8.68c0 4.73 2.957 7.6 7.36 7.6Zm-.052-1.395c-3.685 0-5.934-2.304-5.934-6.366V9.86c0-.434.281-.727.718-.727.427 0 .74.293.74.727v5.164c0 .374.312.627.645.627.354 0 .677-.253.677-.627v-7.72c0-.435.28-.738.708-.738.437 0 .739.303.739.738v7.205c0 .374.312.626.656.626.354 0 .666-.252.666-.626V6.05c0-.434.302-.747.739-.747.416 0 .718.313.718.747v8.459c0 .354.292.626.656.626.354 0 .666-.272.666-.626V7.305c0-.435.302-.738.73-.738.426 0 .728.303.728.738v9.944c0 .505.302.798.739.798.375 0 .687-.162.926-.667l1.5-3.244c.197-.435.583-.586.947-.455.406.142.53.516.343 1.01l-1.905 5.165c-1.27 3.446-3.498 4.75-6.402 4.75Z" fill="#FFF" fill-rule="nonzero"/></g></g></svg>