<svg viewBox="0 0 30 30" xmlns="http://www.w3.org/2000/svg" xmlns:xlink="http://www.w3.org/1999/xlink"><defs><linearGradient x1="50%" y1="0%" x2="50%" y2="99.405%" id="c"><stop stop-color="#0A84FF" offset="0%"/><stop stop-color="#0067D0" offset="100%"/></linearGradient><path d="M8.647.001 21.027 0c.222 0 .435.002.638.005l.583.015.271.01.506.03c.241.017.465.038.675.063l.4.053.365.063c.524.1.946.234 1.332.397l.253.113.247.122.122.064a6.36 6.36 0 0 1 2.646 2.646l.126.245.06.124.113.253c.163.386.296.808.397 1.332l.063.365.053.4c.017.14.031.286.044.44l.035.482c.01.169.018.345.024.53l.015.583.005.639v12.052c0 .223-.002.436-.005.64l-.015.582-.01.271-.03.506a14.11 14.11 0 0 1-.063.675l-.053.4-.063.365a6.528 6.528 0 0 1-.397 1.332l-.113.253-.122.247-.064.122a6.36 6.36 0 0 1-2.646 2.646l-.245.126-.124.06-.253.113a6.528 6.528 0 0 1-1.332.397l-.365.063-.4.053c-.14.017-.286.031-.44.044l-.482.035c-.169.01-.345.018-.53.024l-.583.015-.639.005H8.974c-.223 0-.436-.002-.64-.005l-.582-.015a24.952 24.952 0 0 1-.271-.01l-.506-.03a15.183 15.183 0 0 1-.675-.063l-.4-.053-.365-.063a6.528 6.528 0 0 1-1.332-.397l-.253-.113-.247-.122a6.36 6.36 0 0 1-2.768-2.71l-.126-.245a7.406 7.406 0 0 1-.06-.124l-.113-.253a6.528 6.528 0 0 1-.397-1.332L.176 24.1l-.053-.4c-.017-.14-.031-.286-.044-.44l-.035-.482a19.87 19.87 0 0 1-.024-.53l-.015-.583L0 21.026V8.974c0-.223.002-.436.005-.64l.015-.582.01-.271.03-.506c.017-.241.038-.465.063-.675l.053-.4.063-.365c.1-.524.234-.946.397-1.332l.113-.253.122-.247.064-.122A6.36 6.36 0 0 1 3.581.935l.245-.126.124-.06.253-.113A6.528 6.528 0 0 1 5.535.239L5.9.176l.4-.053c.14-.017.286-.031.44-.044l.482-.035c.169-.01.345-.018.53-.024l.583-.015.312-.004Z" id="a"/></defs><g fill="none" fill-rule="evenodd"><mask id="b" fill="#fff"><use xlink:href="#a"/></mask><g mask="url(#b)"><path fill="url(#c)" d="M0 0h30v30H0z"/><g stroke="#FFF" stroke-width="1.4" fill="none" stroke-linecap="round" stroke-linejoin="round" transform="translate(7 7)"><circle cx="8" cy="8" r="7.3"/><ellipse cx="8" cy="8" rx="7.3" ry="3.2"/><ellipse cx="8" cy="8" rx="3.2" ry="7.3"/><path d="M.7 8h14.6"/></g></g></g></svg>
