<svg viewBox="0 0 30 30" xmlns="http://www.w3.org/2000/svg" xmlns:xlink="http://www.w3.org/1999/xlink"><defs><linearGradient x1="50%" y1="0%" x2="50%" y2="99.405%" id="c"><stop stop-color="#0A84FF" offset="0%"/><stop stop-color="#0067D0" offset="100%"/></linearGradient><path d="M8.647.001 21.027 0c.222 0 .435.002.638.005l.583.015.271.01.506.03c.241.017.465.038.675.063l.4.053.365.063c.524.1.946.234 1.332.397l.253.113.247.122.122.064a6.36 6.36 0 0 1 2.646 2.646l.126.245.06.124.113.253c.163.386.296.808.397 1.332l.063.365.053.4c.017.14.031.286.044.44l.035.482c.01.169.018.345.024.53l.015.583.005.639v12.052c0 .223-.002.436-.005.64l-.015.582-.01.271-.03.506a14.11 14.11 0 0 1-.063.675l-.053.4-.063.365a6.528 6.528 0 0 1-.397 1.332l-.113.253-.122.247-.064.122a6.36 6.36 0 0 1-2.646 2.646l-.245.126-.124.06-.253.113a6.528 6.528 0 0 1-1.332.397l-.365.063-.4.053c-.14.017-.286.031-.44.044l-.482.035c-.169.01-.345.018-.53.024l-.583.015-.639.005H8.974c-.223 0-.436-.002-.64-.005l-.582-.015a24.952 24.952 0 0 1-.271-.01l-.506-.03a15.183 15.183 0 0 1-.675-.063l-.4-.053-.365-.063a6.528 6.528 0 0 1-1.332-.397l-.253-.113-.247-.122a6.36 6.36 0 0 1-2.768-2.71l-.126-.245a7.406 7.406 0 0 1-.06-.124l-.113-.253a6.528 6.528 0 0 1-.397-1.332L.176 24.1l-.053-.4c-.017-.14-.031-.286-.044-.44l-.035-.482a19.87 19.87 0 0 1-.024-.53l-.015-.583L0 21.026V8.974c0-.223.002-.436.005-.64l.015-.582.01-.271.03-.506c.017-.241.038-.465.063-.675l.053-.4.063-.365c.1-.524.234-.946.397-1.332l.113-.253.122-.247.064-.122A6.36 6.36 0 0 1 3.581.935l.245-.126.124-.06.253-.113A6.528 6.528 0 0 1 5.535.239L5.9.176l.4-.053c.14-.017.286-.031.44-.044l.482-.035c.169-.01.345-.018.53-.024l.583-.015.312-.004Z" id="a"/></defs><g fill="none" fill-rule="evenodd"><mask id="b" fill="#fff"><use xlink:href="#a"/></mask><g mask="url(#b)"><path fill="url(#c)" d="M0 0h30v30H0z"/><path d="M7.846 4h2.308c1.337 0 1.822.14 2.311.4.49.262.873.646 1.134 1.135.262.489.401.974.401 2.31v2.31c0 1.336-.14 1.821-.4 2.31a2.726 2.726 0 0 1-1.135 1.134c-.489.262-.974.401-2.31.401h-2.31c-1.336 0-1.821-.14-2.31-.4A2.726 2.726 0 0 1 4.4 12.464c-.262-.489-.401-.974-.401-2.31v-2.31c0-1.336.14-1.821.4-2.31A2.726 2.726 0 0 1 5.536 4.4c.488-.261.973-.4 2.309-.4Z" fill="#FFF"/><path d="M7.846 16h14.308c1.337 0 1.822.14 2.311.4.49.262.873.646 1.134 1.135.262.489.401.974.401 2.31v2.31c0 1.336-.14 1.821-.4 2.31a2.726 2.726 0 0 1-1.135 1.134c-.489.262-.974.401-2.31.401H7.844c-1.336 0-1.821-.14-2.31-.4A2.726 2.726 0 0 1 4.4 24.464c-.262-.489-.401-.974-.401-2.31v-2.31c0-1.336.14-1.821.4-2.31A2.726 2.726 0 0 1 5.536 16.4c.489-.262.974-.401 2.31-.401Z" fill-opacity=".5" fill="#FFF"/></g></g></svg>