<svg xmlns="http://www.w3.org/2000/svg" xmlns:xlink="http://www.w3.org/1999/xlink" viewBox="0 0 30 30"><defs><path d="M8.647.001 21.027 0c.222 0 .435.002.638.005l.583.015.271.01.506.03c.241.017.465.038.675.063l.4.053.365.063c.524.1.946.234 1.332.397l.253.113.247.122.122.064a6.36 6.36 0 0 1 2.646 2.646l.126.245.06.124.113.253c.163.386.296.808.397 1.332l.063.365.053.4c.017.14.031.286.044.44l.035.482c.01.169.018.345.024.53l.015.583.005.639v12.052c0 .223-.002.436-.005.64l-.015.582-.01.271-.03.506a14.11 14.11 0 0 1-.063.675l-.053.4-.063.365a6.528 6.528 0 0 1-.397 1.332l-.113.253-.122.247-.064.122a6.36 6.36 0 0 1-2.646 2.646l-.245.126-.124.06-.253.113a6.528 6.528 0 0 1-1.332.397l-.365.063-.4.053c-.14.017-.286.031-.44.044l-.482.035c-.169.01-.345.018-.53.024l-.583.015-.639.005H8.974c-.223 0-.436-.002-.64-.005l-.582-.015a24.952 24.952 0 0 1-.271-.01l-.506-.03a15.183 15.183 0 0 1-.675-.063l-.4-.053-.365-.063a6.528 6.528 0 0 1-1.332-.397l-.253-.113-.247-.122a6.36 6.36 0 0 1-2.768-2.71l-.126-.245a7.406 7.406 0 0 1-.06-.124l-.113-.253a6.528 6.528 0 0 1-.397-1.332L.176 24.1l-.053-.4c-.017-.14-.031-.286-.044-.44l-.035-.482a19.87 19.87 0 0 1-.024-.53l-.015-.583L0 21.026V8.974c0-.223.002-.436.005-.64l.015-.582.01-.271.03-.506c.017-.241.038-.465.063-.675l.053-.4.063-.365c.1-.524.234-.946.397-1.332l.113-.253.122-.247.064-.122A6.36 6.36 0 0 1 3.581.935l.245-.126.124-.06.253-.113A6.528 6.528 0 0 1 5.535.239L5.9.176l.4-.053c.14-.017.286-.031.44-.044l.482-.035c.169-.01.345-.018.53-.024l.583-.015.312-.004Z" id="a"/></defs><mask id="b" fill="#fff"><use xlink:href="#a"/></mask><g mask="url(#b)" fill="#0A84FF"><path d="M0 0h30v30H0z"/></g><g mask="url(#b)" fill="#FFF"><path d="M8.496 5h2.099c1.215 0 1.656.127 2.1.364.445.238.794.587 1.032 1.031.237.445.364.885.364 2.101v2.099c0 1.215-.127 1.656-.364 2.1a2.478 2.478 0 0 1-1.031 1.032c-.445.237-.886.364-2.101.364H8.496c-1.216 0-1.656-.127-2.1-.364a2.478 2.478 0 0 1-1.032-1.031C5.127 12.25 5 11.81 5 10.595V8.496c0-1.216.127-1.656.364-2.1a2.478 2.478 0 0 1 1.031-1.032C6.84 5.127 7.28 5 8.496 5Z"/><path d="M8.496 15.91h13.008c1.216 0 1.656.126 2.1.363.445.238.794.587 1.032 1.031.237.445.364.886.364 2.101v2.099c0 1.216-.127 1.656-.364 2.1a2.478 2.478 0 0 1-1.031 1.032c-.445.237-.885.364-2.101.364H8.496c-1.216 0-1.656-.127-2.1-.364a2.478 2.478 0 0 1-1.032-1.031C5.127 23.16 5 22.72 5 21.504v-2.099c0-1.215.127-1.656.364-2.1a2.478 2.478 0 0 1 1.031-1.032c.445-.237.885-.364 2.101-.364ZM19.405 5h2.099c1.216 0 1.656.127 2.1.364.445.238.794.587 1.032 1.031.237.445.364.885.364 2.101v2.099c0 1.215-.127 1.656-.364 2.1a2.478 2.478 0 0 1-1.031 1.032c-.445.237-.885.364-2.101.364h-2.099c-1.215 0-1.656-.127-2.1-.364a2.478 2.478 0 0 1-1.032-1.031c-.237-.445-.364-.886-.364-2.101V8.496c0-1.216.127-1.656.364-2.1a2.478 2.478 0 0 1 1.031-1.032C17.75 5.127 18.19 5 19.405 5Z" fill-opacity=".5"/></g></svg>